HIERARCHY
ROOT Hips
{
	OFFSET 0.000000 71.427986 0.000000
	CHANNELS 6 Xposition Yposition Zposition Xrotation Yrotation Zrotation
	JOINT Pelvis
	{
		OFFSET 0.000000 0.000000 0.000000
		CHANNELS 3 Xrotation Yrotation Zrotation
		JOINT LeftUpLeg
		{
			OFFSET 6.797100 -2.508499 -1.318700
			CHANNELS 3 Xrotation Yrotation Zrotation
			JOINT LeftLeg
			{
				OFFSET 0.069008 -29.241863 0.690200
				CHANNELS 3 Xrotation Yrotation Zrotation
				JOINT LeftFoot
				{
					OFFSET -0.069008 -29.568123 -0.266800
					CHANNELS 3 Xrotation Yrotation Zrotation
					JOINT LeftToeBase
					{
						OFFSET 3.145500 -8.631000 16.059900
						CHANNELS 3 Xrotation Yrotation Zrotation
						End Site
						{
							OFFSET 0.000000 18.501587 0.000000
						}
					}
				}
			}
			JOINT Left_ShortSleeve
			{
				OFFSET 0.265923 -10.480953 1.153800
				CHANNELS 3 Xrotation Yrotation Zrotation
				End Site
				{
					OFFSET 1.725763 19.823879 0.000000
				}
			}
		}
		JOINT RightUpLeg
		{
			OFFSET -6.797100 -2.508499 -1.318700
			CHANNELS 3 Xrotation Yrotation Zrotation
			JOINT RightLeg
			{
				OFFSET -0.082453 -29.241932 0.688000
				CHANNELS 3 Xrotation Yrotation Zrotation
				JOINT RightFoot
				{
					OFFSET 0.082453 -29.568058 -0.264600
					CHANNELS 3 Xrotation Yrotation Zrotation
					JOINT RightToeBase
					{
						OFFSET -3.115300 -8.682800 16.113400
						CHANNELS 3 Xrotation Yrotation Zrotation
						End Site
						{
							OFFSET 0.000000 18.567114 0.000000
						}
					}
				}
			}
			JOINT Right_ShortSleeve
			{
				OFFSET -0.265923 -10.480953 1.153800
				CHANNELS 3 Xrotation Yrotation Zrotation
				End Site
				{
					OFFSET -1.725766 19.823910 0.000000
				}
			}
		}
	}
	JOINT Spine
	{
		OFFSET 0.000000 13.368103 0.470500
		CHANNELS 3 Xrotation Yrotation Zrotation
		JOINT Spine1
		{
			OFFSET 0.147000 13.837402 0.538800
			CHANNELS 3 Xrotation Yrotation Zrotation
			JOINT Spine2
			{
				OFFSET 0.168000 16.242897 -1.435500
				CHANNELS 3 Xrotation Yrotation Zrotation
				JOINT Neck
				{
					OFFSET 0.217200 18.631500 -1.679100
					CHANNELS 3 Xrotation Yrotation Zrotation
					JOINT Head
					{
						OFFSET 0.000000 6.599396 1.385900
						CHANNELS 3 Xrotation Yrotation Zrotation
						JOINT Hat
						{
							OFFSET -0.532200 27.220596 -10.096100
							CHANNELS 3 Xrotation Yrotation Zrotation
							End Site
							{
								OFFSET 0.000000 22.029861 0.000000
							}
						}
						JOINT HairD
						{
							OFFSET -10.777400 17.437393 -1.325900
							CHANNELS 3 Xrotation Yrotation Zrotation
							JOINT HairD1
							{
								OFFSET -3.290299 -11.051193 1.062200
								CHANNELS 3 Xrotation Yrotation Zrotation
								End Site
								{
									OFFSET 0.000000 11.579437 0.000000
								}
							}
						}
						JOINT HairB
						{
							OFFSET -10.777400 17.437393 1.467900
							CHANNELS 3 Xrotation Yrotation Zrotation
							JOINT HairB1
							{
								OFFSET -1.561200 -12.956299 3.590200
								CHANNELS 3 Xrotation Yrotation Zrotation
								End Site
								{
									OFFSET 0.000000 13.534866 0.000000
								}
							}
						}
						JOINT HairA
						{
							OFFSET 9.713100 17.437393 1.467900
							CHANNELS 3 Xrotation Yrotation Zrotation
							JOINT HairA1
							{
								OFFSET 1.561200 -12.956299 3.590200
								CHANNELS 3 Xrotation Yrotation Zrotation
								End Site
								{
									OFFSET 0.000000 13.534866 0.000000
								}
							}
						}
						JOINT HairC
						{
							OFFSET 9.713100 17.437393 -1.325900
							CHANNELS 3 Xrotation Yrotation Zrotation
							JOINT HairC1
							{
								OFFSET 3.290300 -11.051193 1.062200
								CHANNELS 3 Xrotation Yrotation Zrotation
								End Site
								{
									OFFSET 0.000000 11.579437 0.000000
								}
							}
						}
					}
				}
				JOINT LeftShoulder
				{
					OFFSET 5.101800 15.108002 -2.763700
					CHANNELS 3 Xrotation Yrotation Zrotation
					JOINT LeftArm
					{
						OFFSET 9.825497 2.506317 -1.597400
						CHANNELS 3 Xrotation Yrotation Zrotation
						JOINT LeftForeArm
						{
							OFFSET 21.966244 0.000000 0.000000
							CHANNELS 3 Xrotation Yrotation Zrotation
							JOINT LeftHand
							{
								OFFSET 33.879036 0.000000 0.000000
								CHANNELS 3 Xrotation Yrotation Zrotation
								JOINT LeftHandThumb1
								{
									OFFSET 6.715286 -2.359680 3.363841
									CHANNELS 3 Xrotation Yrotation Zrotation
									JOINT LeftHandThumb2
									{
										OFFSET 2.507072 -1.447464 1.447461
										CHANNELS 3 Xrotation Yrotation Zrotation
										JOINT LeftHandThumb3
										{
											OFFSET 2.898338 -1.673355 1.673357
											CHANNELS 3 Xrotation Yrotation Zrotation
											End Site
											{
												OFFSET -0.295959 3.727692 -0.131651
											}
										}
									}
								}
								JOINT LeftHandIndex1
								{
									OFFSET 14.190811 -0.254547 3.840278
									CHANNELS 3 Xrotation Yrotation Zrotation
									JOINT LeftHandIndex2
									{
										OFFSET 3.551727 0.000000 -0.000000
										CHANNELS 3 Xrotation Yrotation Zrotation
										JOINT LeftHandIndex3
										{
											OFFSET 2.894196 0.000000 0.000000
											CHANNELS 3 Xrotation Yrotation Zrotation
											End Site
											{
												OFFSET -1.000603 2.690872 0.366626
											}
										}
									}
								}
								JOINT LeftHandMiddle1
								{
									OFFSET 13.776489 0.000000 0.000000
									CHANNELS 3 Xrotation Yrotation Zrotation
									JOINT LeftHandMiddle2
									{
										OFFSET 3.438232 0.000000 0.000000
										CHANNELS 3 Xrotation Yrotation Zrotation
										JOINT LeftHandMiddle3
										{
											OFFSET 3.691551 0.000000 0.000000
											CHANNELS 3 Xrotation Yrotation Zrotation
											End Site
											{
												OFFSET -1.082298 3.499527 0.457670
											}
										}
									}
								}
								JOINT LeftHandRing1
								{
									OFFSET 13.966164 -0.268127 -3.067488
									CHANNELS 3 Xrotation Yrotation Zrotation
									JOINT LeftHandRing2
									{
										OFFSET 3.162567 0.000000 0.000000
										CHANNELS 3 Xrotation Yrotation Zrotation
										JOINT LeftHandRing3
										{
											OFFSET 3.324348 0.000000 0.000000
											CHANNELS 3 Xrotation Yrotation Zrotation
											End Site
											{
												OFFSET -0.861900 3.184998 0.405154
											}
										}
									}
								}
								JOINT LeftHandPinky1
								{
									OFFSET 13.131393 -0.168503 -5.746925
									CHANNELS 3 Xrotation Yrotation Zrotation
									JOINT LeftHandPinky2
									{
										OFFSET 2.849182 0.000000 0.000000
										CHANNELS 3 Xrotation Yrotation Zrotation
										JOINT LeftHandPinky3
										{
											OFFSET 2.805038 0.000000 0.000000
											CHANNELS 3 Xrotation Yrotation Zrotation
											End Site
											{
												OFFSET -0.882500 2.642609 0.325652
											}
										}
									}
								}
							}
							JOINT Left_Sleeve
							{
								OFFSET 6.592125 -0.646545 0.805568
								CHANNELS 3 Xrotation Yrotation Zrotation
								End Site
								{
									OFFSET -0.000179 20.275787 -0.000000
								}
							}
						}
					}
				}
				JOINT RightShoulder
				{
					OFFSET -5.731700 15.108002 -2.763700
					CHANNELS 3 Xrotation Yrotation Zrotation
					JOINT RightArm
					{
						OFFSET -9.825497 2.506317 -1.597400
						CHANNELS 3 Xrotation Yrotation Zrotation
						JOINT RightForeArm
						{
							OFFSET -21.966242 0.000000 0.000000
							CHANNELS 3 Xrotation Yrotation Zrotation
							JOINT RightHand
							{
								OFFSET -33.879032 0.000000 0.000000
								CHANNELS 3 Xrotation Yrotation Zrotation
								JOINT RightHandThumb1
								{
									OFFSET -6.715286 -2.359680 3.363841
									CHANNELS 3 Xrotation Yrotation Zrotation
									JOINT RightHandThumb2
									{
										OFFSET -2.507072 -1.447464 1.447461
										CHANNELS 3 Xrotation Yrotation Zrotation
										JOINT RightHandThumb3
										{
											OFFSET -2.898338 -1.673355 1.673357
											CHANNELS 3 Xrotation Yrotation Zrotation
											End Site
											{
												OFFSET 0.295959 3.727692 -0.131651
											}
										}
									}
								}
								JOINT RightHandIndex1
								{
									OFFSET -14.190811 -0.254547 3.840278
									CHANNELS 3 Xrotation Yrotation Zrotation
									JOINT RightHandIndex2
									{
										OFFSET -3.551727 0.000000 -0.000000
										CHANNELS 3 Xrotation Yrotation Zrotation
										JOINT RightHandIndex3
										{
											OFFSET -2.894196 0.000000 0.000000
											CHANNELS 3 Xrotation Yrotation Zrotation
											End Site
											{
												OFFSET 1.000603 2.690872 0.366626
											}
										}
									}
								}
								JOINT RightHandMiddle1
								{
									OFFSET -13.776489 0.000000 0.000000
									CHANNELS 3 Xrotation Yrotation Zrotation
									JOINT RightHandMiddle2
									{
										OFFSET -3.438232 0.000000 0.000000
										CHANNELS 3 Xrotation Yrotation Zrotation
										JOINT RightHandMiddle3
										{
											OFFSET -3.691551 0.000000 0.000000
											CHANNELS 3 Xrotation Yrotation Zrotation
											End Site
											{
												OFFSET 1.082298 3.499527 0.457670
											}
										}
									}
								}
								JOINT RightHandRing1
								{
									OFFSET -13.966164 -0.268127 -3.067488
									CHANNELS 3 Xrotation Yrotation Zrotation
									JOINT RightHandRing2
									{
										OFFSET -3.162567 0.000000 0.000000
										CHANNELS 3 Xrotation Yrotation Zrotation
										JOINT RightHandRing3
										{
											OFFSET -3.324348 0.000000 0.000000
											CHANNELS 3 Xrotation Yrotation Zrotation
											End Site
											{
												OFFSET 0.861900 3.184998 0.405154
											}
										}
									}
								}
								JOINT RightHandPinky1
								{
									OFFSET -13.131393 -0.168503 -5.746925
									CHANNELS 3 Xrotation Yrotation Zrotation
									JOINT RightHandPinky2
									{
										OFFSET -2.849182 0.000000 0.000000
										CHANNELS 3 Xrotation Yrotation Zrotation
										JOINT RightHandPinky3
										{
											OFFSET -2.805038 0.000000 0.000000
											CHANNELS 3 Xrotation Yrotation Zrotation
											End Site
											{
												OFFSET 0.882500 2.642609 0.325652
											}
										}
									}
								}
							}
							JOINT Right_Sleeve
							{
								OFFSET -6.592125 -0.646545 0.805568
								CHANNELS 3 Xrotation Yrotation Zrotation
								End Site
								{
									OFFSET 0.000179 20.275787 -0.000000
								}
							}
						}
					}
				}
				JOINT Bind_Right_JacketString
				{
					OFFSET -3.534800 11.969597 7.200700
					CHANNELS 3 Xrotation Yrotation Zrotation
					JOINT Bind_Right_JacketString1
					{
						OFFSET -0.319900 -6.102600 2.794100
						CHANNELS 3 Xrotation Yrotation Zrotation
						End Site
						{
							OFFSET 0.000000 6.719452 0.000000
						}
					}
				}
				JOINT Bind_Left_JacketString
				{
					OFFSET 2.904800 11.969597 7.200700
					CHANNELS 3 Xrotation Yrotation Zrotation
					JOINT Bind_Left_JacketString1
					{
						OFFSET 0.364800 -5.904503 3.186800
						CHANNELS 3 Xrotation Yrotation Zrotation
						End Site
						{
							OFFSET 0.000000 6.719513 0.000000
						}
					}
				}
				JOINT HairE
				{
					OFFSET 5.915200 17.612701 -11.592200
					CHANNELS 3 Xrotation Yrotation Zrotation
					JOINT HairE1
					{
						OFFSET 0.289200 -7.171898 -1.284500
						CHANNELS 3 Xrotation Yrotation Zrotation
						End Site
						{
							OFFSET 0.000000 7.291756 0.000000
						}
					}
				}
				JOINT HairF
				{
					OFFSET -0.864800 17.612701 -11.592200
					CHANNELS 3 Xrotation Yrotation Zrotation
					JOINT HairF1
					{
						OFFSET 0.000000 -14.087097 -2.127501
						CHANNELS 3 Xrotation Yrotation Zrotation
						End Site
						{
							OFFSET 0.000000 14.246841 0.000000
						}
					}
				}
				JOINT HairG
				{
					OFFSET -8.087700 17.612701 -11.592200
					CHANNELS 3 Xrotation Yrotation Zrotation
					JOINT HairG1
					{
						OFFSET -0.293600 -6.081398 -0.910100
						CHANNELS 3 Xrotation Yrotation Zrotation
						End Site
						{
							OFFSET 0.000000 6.156120 0.000000
						}
					}
				}
			}
		}
	}
	JOINT Pouch
	{
		OFFSET 0.000000 4.394501 10.847300
		CHANNELS 3 Xrotation Yrotation Zrotation
		End Site
		{
			OFFSET 0.000000 21.880577 0.000000
		}
	}
	JOINT Bag
	{
		OFFSET -13.229000 4.813004 -0.593300
		CHANNELS 3 Xrotation Yrotation Zrotation
		End Site
		{
			OFFSET 0.000000 21.880577 0.000000
		}
	}
	JOINT OccupyGuyFacialAnim_Joint
	{
		OFFSET 1.000000 -70.206398 -1.655000
		CHANNELS 3 Xrotation Yrotation Zrotation
		End Site
		{
			OFFSET 0.000000 21.880577 0.000000
		}
	}
}
MOTION
Frames: 4
Frame Time: 0.033333
-0.648707 29.620049 0.763197 -3.217112 -26.088688 11.307408 0.000000 0.000000 -0.000000 -102.588123 -1.997237 26.829222 102.467297 0.650502 -1.723864 8.116832 2.373643 -4.755883 -0.000000 0.000000 -0.000000 -0.000000 0.000000 0.000000 -38.636331 18.048252 -14.786391 149.526037 -23.184584 -2.134639 -7.293637 -8.717277 -9.163540 -0.000002 0.000001 -0.000000 -0.000002 -0.000001 -0.000002 29.087348 -3.720039 -9.510495 5.860781 -0.819838 -0.956972 5.871753 -0.912846 -0.883660 6.605107 1.255765 0.163958 -14.894278 17.864612 -7.333114 -0.000000 0.000000 0.000000 -0.000000 0.000000 0.000000 -0.000000 0.000000 0.000000 -0.000000 0.000000 0.000000 0.000001 -0.000000 0.000001 -0.000000 0.000000 0.000000 0.000001 -0.000000 0.000001 -0.000000 0.000000 0.000000 -0.000000 0.000000 0.000000 1.511814 -20.854545 0.398945 -47.658444 -9.433153 -28.452244 -0.000001 -139.616402 -0.000009 -10.305591 -14.700283 38.187171 18.975389 -3.500946 19.810480 -21.510151 70.926037 -14.940658 0.000001 -0.000000 -0.000001 -3.146634 2.146639 -48.570858 7.109653 5.714535 -102.442845 0.000003 -0.000000 -0.000000 2.065364 7.071884 -66.799141 7.680302 5.558709 -108.247748 0.000001 0.000001 -0.000001 10.301389 8.964986 -81.046683 6.929905 5.751098 -100.643234 -0.000001 0.000001 0.000000 2.227914 7.014348 -61.644704 6.575103 5.806259 -97.120509 -0.000000 0.000003 -0.000000 -0.000001 0.000000 -0.000004 1.966975 22.240720 -0.518573 -20.030151 38.218098 43.352249 -0.000112 98.945317 0.000135 -11.933391 -25.528928 5.353376 61.333664 30.777679 -12.521476 -16.865171 -36.773561 -14.662302 0.000001 -0.000001 0.000000 -2.520358 4.938611 18.299311 1.715288 -3.611900 50.794321 -0.000000 0.000000 -0.000001 9.149409 -8.657908 71.635434 6.185877 -4.399605 109.182350 0.000002 -0.000000 -0.000003 5.893599 -7.437573 74.427321 4.024112 -4.614047 82.178917 -0.000004 0.000000 0.000000 7.653959 -7.531541 79.885100 1.640502 -3.549737 49.596719 0.000000 0.000000 0.000002 0.000000 0.000002 0.000002 -0.000000 0.000002 -0.000000 -0.000000 -0.000002 0.000001 -0.000000 0.000002 -0.000000 -0.000000 0.000002 -0.000000 -0.000000 0.000002 -0.000000 -0.000000 -0.000002 0.000001 -0.000000 0.000002 -0.000000 -0.000000 0.000002 -0.000000 -0.000000 0.000002 -0.000000 -0.000000 -0.000002 0.000001 0.000000 0.000000 -0.000000 0.000000 0.000000 -0.000000 0.000000 0.000000 -0.000000 
-0.649254 29.626793 0.760099 -3.285147 -26.080546 11.293491 0.000000 -0.000001 0.000001 -102.521986 -1.958228 26.829874 102.451444 0.637728 -1.723859 8.112322 2.374466 -4.735929 -0.000000 0.000000 -0.000000 0.000004 0.000000 0.000000 -38.538656 18.012363 -14.832388 149.570857 -23.276387 -2.149829 -7.544739 -8.730062 -9.080641 0.000001 0.000000 0.000001 0.000000 0.000000 0.000000 29.205592 -3.740811 -9.509748 5.904783 -0.819841 -0.956964 5.919073 -0.912842 -0.883660 6.605119 1.255761 0.147737 -14.942717 17.931709 -7.344471 -0.000001 0.000000 -0.000000 -0.000001 0.000000 -0.000000 -0.000001 0.000000 -0.000000 -0.000001 0.000000 -0.000000 -0.000001 -0.000000 0.000000 -0.000001 0.000000 -0.000000 -0.000001 -0.000000 0.000000 -0.000001 0.000000 -0.000000 -0.000001 0.000000 -0.000000 1.513331 -21.142869 -0.174270 -46.978017 -10.677333 -28.177057 0.000015 -139.267940 0.000026 -8.910133 -14.706958 39.200020 18.773839 -3.654326 19.290309 -21.458728 69.044101 -14.917997 0.000002 -0.000002 0.000001 -3.146620 2.146638 -48.570858 7.109647 5.714517 -102.442852 -0.000002 0.000000 0.000003 2.065367 7.071875 -66.799154 7.680307 5.558711 -108.247741 0.000001 0.000001 -0.000001 10.301409 8.964976 -81.046724 6.929895 5.751090 -100.643240 -0.000000 0.000003 -0.000002 2.227929 7.014334 -61.644718 6.575093 5.806253 -97.120536 -0.000002 0.000002 -0.000002 0.000002 -0.000001 0.000002 1.978448 22.319472 -0.547038 -20.357836 38.179706 43.603979 0.000286 98.692190 -0.000277 -11.886297 -25.587644 5.600468 61.295941 30.767062 -12.484117 -16.849616 -36.750273 -14.671035 -0.000001 -0.000002 0.000000 -2.520355 4.938611 18.299305 1.715306 -3.611897 50.794321 -0.000001 0.000001 0.000000 9.143619 -8.657476 71.622149 6.185526 -4.399746 109.177712 -0.000000 -0.000004 -0.000001 5.893066 -7.437688 74.421106 4.023203 -4.613911 82.167852 -0.000000 -0.000001 -0.000002 7.653983 -7.531544 79.885093 1.640806 -3.549979 49.601483 -0.000002 0.000002 -0.000003 -0.000002 0.000001 -0.000000 -0.000000 0.000001 -0.000001 -0.000000 0.000001 -0.000001 -0.000000 0.000001 -0.000001 -0.000000 0.000001 -0.000001 -0.000000 0.000001 -0.000001 -0.000000 0.000001 -0.000000 -0.000000 0.000001 -0.000001 -0.000000 0.000001 -0.000001 -0.000000 0.000001 -0.000001 -0.000000 0.000001 -0.000000 0.000000 -0.000001 0.000001 0.000000 -0.000001 0.000001 0.000000 -0.000001 0.000001 
-0.651872 29.640800 0.754359 -3.366995 -26.051313 11.275731 0.000000 -0.000000 0.000001 -102.436548 -1.899921 26.817674 102.416870 0.621878 -1.723828 8.110517 2.375631 -4.707686 -0.000000 -0.000000 -0.000000 -0.000003 0.000000 -0.000000 -38.432645 17.921795 -14.899089 149.610704 -23.345139 -2.177012 -7.822220 -8.772633 -9.008681 -0.000000 -0.000005 0.000001 -0.000000 0.000000 -0.000002 29.322897 -3.762520 -9.508743 5.948883 -0.819836 -0.956971 5.966528 -0.912846 -0.883658 6.605126 1.255760 0.131471 -14.996322 17.991917 -7.353965 0.000002 0.000000 -0.000000 0.000002 0.000000 -0.000000 0.000002 0.000000 -0.000000 0.000002 0.000000 -0.000000 0.000002 0.000000 0.000000 0.000002 0.000000 -0.000000 0.000002 0.000000 0.000000 0.000002 0.000000 -0.000000 0.000002 0.000000 -0.000000 1.512276 -21.430584 -0.715742 -46.206312 -11.912113 -27.827625 0.000007 -138.850697 0.000003 -7.253259 -14.606918 40.562339 18.572679 -3.804077 18.768941 -21.404005 67.164754 -14.901145 0.000001 -0.000000 -0.000000 -3.146633 2.146642 -48.570851 7.109656 5.714538 -102.442879 0.000000 0.000002 -0.000002 2.065368 7.071872 -66.799161 7.680306 5.558708 -108.247741 0.000003 0.000001 0.000001 10.301401 8.964984 -81.046724 6.929903 5.751103 -100.643240 -0.000001 -0.000000 0.000002 2.227917 7.014349 -61.644711 6.575096 5.806249 -97.120509 -0.000002 0.000001 -0.000002 0.000001 -0.000001 0.000001 1.994910 22.395468 -0.580317 -20.682219 38.148140 43.855665 -0.000289 98.397140 0.000315 -11.849664 -25.614746 5.839201 61.180812 30.736613 -12.388569 -16.803570 -36.681531 -14.696962 -0.000002 -0.000002 -0.000002 -2.515764 4.930809 18.286146 1.715550 -3.612137 50.798606 -0.000001 0.000000 -0.000001 9.122120 -8.654764 71.582623 6.184144 -4.400251 109.159414 -0.000003 0.000002 -0.000002 5.890844 -7.438199 74.396756 4.020590 -4.613563 82.135128 0.000002 -0.000001 -0.000001 7.652701 -7.532249 79.871290 1.641934 -3.550963 49.620221 -0.000002 0.000001 0.000001 0.000002 -0.000001 -0.000003 0.000004 0.000000 -0.000000 0.000002 0.000000 -0.000000 0.000004 0.000000 0.000001 0.000004 0.000000 0.000001 0.000004 0.000000 -0.000000 0.000002 0.000000 -0.000000 0.000004 0.000000 0.000001 0.000004 0.000000 0.000001 0.000004 0.000000 -0.000000 0.000002 0.000000 -0.000000 0.000000 -0.000000 0.000001 0.000000 -0.000000 0.000001 0.000000 -0.000000 0.000001 
-0.656574 29.661530 0.746171 -3.461321 -26.003394 11.254361 -0.000000 -0.000001 -0.000000 -102.334320 -1.820725 26.800407 102.363929 0.594793 -1.723805 8.114416 2.377109 -4.669603 -0.000000 0.000000 -0.000000 -0.000001 0.000001 -0.000000 -38.313321 17.776995 -14.986813 149.642478 -23.413619 -2.217194 -8.137550 -8.848219 -8.941241 -0.000002 0.000004 -0.000001 0.000002 0.000000 -0.000000 29.439027 -3.785661 -9.507449 5.992995 -0.819838 -0.956972 6.013993 -0.912844 -0.883658 6.605101 1.256528 0.114032 -15.073939 18.028599 -7.343022 0.000002 -0.000000 0.000000 0.000002 -0.000000 0.000000 0.000002 -0.000000 0.000000 0.000002 -0.000000 0.000000 0.000000 0.000000 -0.000000 0.000002 -0.000000 0.000000 0.000000 0.000000 -0.000000 0.000002 -0.000000 0.000000 0.000002 -0.000000 0.000000 1.506650 -21.719141 -1.246132 -45.373896 -13.128859 -27.422267 0.000004 -138.380111 0.000010 -5.606838 -14.435364 42.154036 18.371298 -3.945887 18.247216 -21.346718 65.288071 -14.889187 0.000004 0.000001 0.000000 -3.146627 2.146638 -48.570845 7.109660 5.714525 -102.442872 0.000006 0.000001 -0.000000 2.065369 7.071875 -66.799161 7.680305 5.558716 -108.247754 -0.000001 0.000000 -0.000003 10.301404 8.964972 -81.046711 6.929904 5.751094 -100.643227 0.000001 -0.000001 -0.000000 2.227933 7.014341 -61.644718 6.575113 5.806250 -97.120536 -0.000005 0.000001 -0.000001 0.000003 0.000000 0.000002 2.007532 22.475982 -0.595931 -21.007300 38.077488 44.111523 0.000354 98.081598 -0.000300 -11.829322 -25.638908 6.081523 60.992230 30.686319 -12.231977 -16.728081 -36.568860 -14.739714 0.000003 -0.000001 -0.000001 -2.508212 4.918067 18.264605 1.716314 -3.612750 50.810563 0.000001 -0.000001 0.000000 9.086990 -8.650262 71.517791 6.181840 -4.401013 109.129443 -0.000002 -0.000002 0.000001 5.892028 -7.440343 74.357046 4.016243 -4.612960 82.081402 -0.000001 -0.000001 -0.000001 7.650637 -7.533398 79.848709 1.643869 -3.552579 49.650961 -0.000005 0.000001 -0.000001 0.000002 0.000000 0.000002 -0.000003 0.000001 0.000000 -0.000003 0.000001 -0.000001 -0.000003 0.000001 0.000000 -0.000003 0.000001 0.000000 -0.000003 0.000001 0.000000 -0.000003 0.000001 -0.000001 -0.000003 0.000001 0.000000 -0.000003 0.000001 0.000000 -0.000003 0.000001 0.000000 -0.000003 0.000001 -0.000001 -0.000000 -0.000001 -0.000000 -0.000000 -0.000001 -0.000000 -0.000000 -0.000001 -0.000000 
